<svg xmlns="http://www.w3.org/2000/svg" viewBox="0 0 278.65 279.07"><defs><style>.cls-1{fill:red;}.cls-1,.cls-2{stroke:red;}.cls-1,.cls-2,.cls-3{stroke-miterlimit:10;}.cls-2{fill:none;stroke-width:5px;}.cls-3{fill:#fff;stroke:#231f20;stroke-width:4px;}.cls-4{font-size:66.71px;fill:#231f20;font-family:RigidSquare-Bold, Rigid Square;font-weight:700;letter-spacing:0.01em;}</style></defs><g id="Layer_2" data-name="Layer 2"><g id="Layer_1-2" data-name="Layer 1"><circle class="cls-1" cx="186" cy="177.96" r="7.49"/><path class="cls-2" d="M166.83,194.48c-7.39-11.28-4.12-26.41,6.61-33.4,11.24-7.33,27.24-3.5,34.1,8.89"/><path class="cls-2" d="M148.68,206.21a44.11,44.11,0,1,1,75.78-45.14"/><path class="cls-2" d="M132.2,218.78c-18.62-30.66-8.85-71.14,21.55-89.89,30.57-18.86,71.38-9.2,90.29,21.52"/><path class="cls-3" d="M252.64,197.51l-9.27,5.57,7.32,12.6-1.49.85-10.49-17.71L228,205.3l8.73,14.43-1.21.7-11-18-11.92,7.07,10.78,17.83-.64.36-20.51-33.9-12.65,7.65,25.29,41.82L223.11,257l-18.67-6.61a.1.1,0,0,0-.12.05l-4.76,13.46a.07.07,0,0,0,0,.06s0,0,.05.05,10.28,3.77,19.36,7.08A42.75,42.75,0,0,0,235.21,277l37.62-22.75a23.7,23.7,0,0,0,1.38-23.39Z"/><text class="cls-4" transform="translate(0 186.45)">guin</text><text class="cls-4" transform="translate(3.64 56.03)">the</text><text class="cls-4" transform="translate(39.94 121.05)">digital</text></g></g></svg>